<svg version="1.1" id="Layer_1" xmlns="http://www.w3.org/2000/svg" xmlns:xlink="http://www.w3.org/1999/xlink" x="0px" y="0px"
	 width="100%" viewBox="0 0 128 128" enable-background="new 0 0 128 128" xml:space="preserve">
<path fill="#FEFEFE" opacity="1.000000" stroke="none" 
	d="
M90.000000,129.000000 
	C60.000000,129.000000 30.500000,129.000000 1.000000,129.000000 
	C1.000000,86.333336 1.000000,43.666668 1.000000,1.000000 
	C43.666668,1.000000 86.333336,1.000000 129.000000,1.000000 
	C129.000000,43.666668 129.000000,86.333336 129.000000,129.000000 
	C116.166664,129.000000 103.333336,129.000000 90.000000,129.000000 
M68.113701,21.647642 
	C43.992901,20.390450 30.341412,35.315193 26.465212,51.979504 
	C25.236666,57.261196 25.012358,62.850864 24.920658,68.309540 
	C24.553007,90.195007 38.608242,113.191483 69.985443,111.061119 
	C86.677368,109.927826 101.897408,96.039368 102.818108,80.199326 
	C97.015656,80.199326 91.222656,80.199326 85.448135,80.199326 
	C80.246193,92.319794 75.339989,95.572906 63.138924,95.025284 
	C54.584194,94.641312 47.457836,88.543022 44.614563,78.682846 
	C42.110962,70.000626 42.159389,61.193924 45.123585,52.628601 
	C47.785622,44.936386 52.788418,39.415493 61.221340,37.966373 
	C73.296745,35.891327 79.678986,39.764828 85.459389,52.456696 
	C91.202240,52.456696 96.945091,52.456696 102.694283,52.456696 
	C101.770828,35.579529 88.321960,23.433905 68.113701,21.647642 
z"/>
<path fill="#4F4E4F" opacity="1.000000" stroke="none" 
	d="
M68.547226,21.676531 
	C88.321960,23.433905 101.770828,35.579529 102.694283,52.456696 
	C96.945091,52.456696 91.202240,52.456696 85.456970,52.463203 
	C79.678986,39.764828 73.296745,35.891327 61.221340,37.966373 
	C52.788418,39.415493 47.785622,44.936386 45.123585,52.628601 
	C42.159389,61.193924 42.110962,70.000626 44.614563,78.682846 
	C47.457836,88.543022 54.584194,94.641312 63.138924,95.025284 
	C75.339989,95.572906 80.246193,92.319794 85.448135,80.199326 
	C91.222656,80.199326 97.015656,80.199326 102.818108,80.199326 
	C101.897408,96.039368 86.677368,109.927826 69.985443,111.061119 
	C38.608242,113.191483 24.553007,90.195007 24.920658,68.309540 
	C25.012358,62.850864 25.236666,57.261196 26.465212,51.979504 
	C30.341412,35.315193 43.992901,20.390450 68.547226,21.676531 
z"/>
</svg>